<?xml version="1.0" encoding="iso-8859-1"?>
<!-- Generator: Adobe Illustrator 19.0.0, SVG Export Plug-In . SVG Version: 6.00 Build 0)  -->
<svg version="1.1" id="Capa_1" xmlns="http://www.w3.org/2000/svg" xmlns:xlink="http://www.w3.org/1999/xlink" x="0px" y="0px"
	 viewBox="0 0 488.975 488.975" style="enable-background:new 0 0 488.975 488.975;" xml:space="preserve">
<g>
	<g>
		<path d="M459.225,2.275c-63.4,32.2-133.1,48.9-207,48.9c-125.8,0-221.5-48.9-222.6-48.9c-19.1-7.6-30.8,4.9-29.1,21.8l45.8,294.3
			c31.1,150,152.9,170.6,198.6,170.6s179.2-26.7,197.6-169.5l45.8-295.4C491.025,5.675,474.225-4.925,459.225,2.275z
			 M403.025,313.275c-18.7,118-120.6,135.2-158.1,135.2s-139.4-23-158.1-135.2l-40.6-260c41.6,16.6,116.5,38.5,207,38.5
			c66.6,0,130-11.4,189.3-36.4L403.025,313.275z"/>
		<path d="M200.225,188.475c9.4-6.2,11.4-18.7,4.2-28.1c-6.2-9.4-18.7-11.4-28.1-4.2c-20.8,15.6-41.6,2.1-43.7,0
			c-8.3-6.2-20.8-5.2-28.1,4.2c-6.2,8.3-5.2,20.8,4.2,28.1s27,15.6,47.8,15.6C170.025,204.075,186.725,199.875,200.225,188.475z"/>
		<path d="M288.625,188.475c9.4,7.3,27,15.6,47.8,15.6c14.6,0,30.2-4.2,43.7-15.6c9.4-6.2,11.4-18.7,4.2-28.1
			c-6.2-9.4-18.7-11.4-28.1-4.2c-20.8,15.6-41.6,2.1-43.7,0c-8.3-6.2-20.8-5.2-28.1,4.2
			C278.225,168.675,279.225,181.175,288.625,188.475z"/>
		<path d="M337.525,278.875c-8.3-8.3-21.8-7.3-29.1,1c-18.7,20.8-39.5,31.2-60.3,31.2c-36.4,0-66.6-30.2-66.6-31.2
			c-8.3-8.3-20.8-8.3-29.1-1c-8.3,8.3-8.3,20.8-1,29.1c2.1,2.1,41.6,44.7,96.7,44.7c33.3,0,63.4-15.6,90.5-44.7
			C345.825,299.675,345.825,286.175,337.525,278.875z"/>
	</g>
</g>
<g>
</g>
<g>
</g>
<g>
</g>
<g>
</g>
<g>
</g>
<g>
</g>
<g>
</g>
<g>
</g>
<g>
</g>
<g>
</g>
<g>
</g>
<g>
</g>
<g>
</g>
<g>
</g>
<g>
</g>
</svg>
