<?xml version="1.0" encoding="iso-8859-1"?>
<!-- Generator: Adobe Illustrator 19.0.0, SVG Export Plug-In . SVG Version: 6.00 Build 0)  -->
<svg version="1.1" id="Capa_1" xmlns="http://www.w3.org/2000/svg" xmlns:xlink="http://www.w3.org/1999/xlink" x="0px" y="0px"
	 viewBox="0 0 214 214" style="enable-background:new 0 0 214 214;" xml:space="preserve">
<g>
	<path d="M107.333,1C78.444,1,54.895,24.237,54.358,53H54v0.988c0,0.004,0,0.008,0,0.012s0,0.008,0,0.012V213h106V53h0.308
		C159.771,24.237,136.222,1,107.333,1z M107.333,26c15.104,0,27.445,12.023,27.975,27H79.358C79.888,38.023,92.229,26,107.333,26z"
		/>
	<path d="M0,68.25v130C0,206.521,6.922,213,15.333,213H31V53H15.333C7.062,53,0,59.841,0,68.25z"/>
	<path d="M199.333,53H183v160h16.333c8.411,0,14.667-6.479,14.667-14.75v-130C214,59.841,207.604,53,199.333,53z"/>
</g>
<g>
</g>
<g>
</g>
<g>
</g>
<g>
</g>
<g>
</g>
<g>
</g>
<g>
</g>
<g>
</g>
<g>
</g>
<g>
</g>
<g>
</g>
<g>
</g>
<g>
</g>
<g>
</g>
<g>
</g>
</svg>
