<?xml version="1.0" encoding="utf-8"?>
<!-- Uploaded to SVGRepo https://www.svgrepo.com -->
<svg version="1.2" baseProfile="tiny" id="Layer_1" xmlns="http://www.w3.org/2000/svg" xmlns:xlink="http://www.w3.org/1999/xlink"
	 x="0px" y="0px" viewBox="-351 153 256 256" xml:space="preserve">
<g>
	<circle cx="-283.2" cy="297.8" r="13.5"/>
	<path d="M-233.1,360.2c-0.2-0.3-0.4-0.5-0.6-0.7l-15.3-14.3l-9.9-21.2c-2.7-5.4-6.6-8.8-12.4-8.8h-24.9c-5.8,0-9.7,3.4-12.4,8.8
		l-9.9,21.2l-15.3,14.2c-0.2,0.2-0.4,0.5-0.6,0.7c-1.6,1.3-2.6,3.3-2.6,5.5c0,4,3.3,7.3,7.3,7.3c2.4,0,4.5-1.1,5.8-2.9
		c0.1-0.1,0.3-0.2,0.3-0.3l16.2-15.1c0.6-0.6,1.1-1.3,1.4-2.1l5.2-11l-0.3,19.5l-22.6,12.3c-4.1,2.3-6.1,7.1-4.6,11.6
		s5.9,7.2,10.5,6.6l33.8-8.8l33.8,8.8c4.6,0.6,9.1-2.1,10.5-6.6c1.5-4.5-0.5-9.3-4.6-11.6l-22.6-12.3l-0.3-19.5l5.2,11
		c0.3,0.8,0.9,1.5,1.4,2.1l16.2,15.1c0.1,0.1,0.2,0.2,0.3,0.3c1.3,1.7,3.4,2.9,5.8,2.9c4,0,7.3-3.3,7.3-7.3
		C-230.5,363.4-231.5,361.5-233.1,360.2z"/>
	<circle cx="-163.8" cy="297.8" r="13.5"/>
	<path d="M-204.3,370.1c0.1-0.1,0.3-0.2,0.3-0.3l16.2-15.1c0.6-0.6,1.1-1.3,1.4-2.1l5.2-11l-0.3,19.5l-22.6,12.3
		c-4.1,2.3-6.1,7.1-4.6,11.6s5.9,7.2,10.5,6.6l33.8-8.8l33.8,8.8c4.6,0.6,9.1-2.1,10.5-6.6c1.5-4.5-0.5-9.3-4.6-11.6l-22.6-12.3
		l-0.3-19.5l5.2,11c0.3,0.8,0.9,1.5,1.4,2.1l16.2,15.1c0.1,0.1,0.2,0.2,0.3,0.3c1.3,1.7,3.4,2.9,5.8,2.9c4,0,7.3-3.3,7.3-7.3
		c0-2.2-1-4.2-2.5-5.5c-0.2-0.3-0.4-0.5-0.6-0.7l-15.3-14.2l-9.9-21.2c-2.7-5.4-6.6-8.8-12.4-8.8H-177c-5.8,0-9.7,3.4-12.4,8.8
		l-9.9,21.2l-15.3,14.2c-0.2,0.2-0.4,0.5-0.6,0.7c-1.6,1.3-2.6,3.3-2.6,5.5c0,4,3.3,7.3,7.3,7.3C-207.7,373-205.7,371.9-204.3,370.1
		z"/>
	<circle cx="-221.3" cy="168.9" r="13.5"/>
	<path d="M-267.2,244.1c2.4,0,4.5-1.1,5.8-2.9c0.1-0.1,0.3-0.2,0.3-0.3l16.2-15.1c0.6-0.6,1.1-1.3,1.4-2.1l5.2-11l-0.3,19.5
		l-22.5,12.3c-4.1,2.3-6.1,7.1-4.6,11.6s5.9,7.2,10.5,6.6l33.8-8.8l33.8,8.8c4.6,0.6,9.1-2.1,10.5-6.6c1.5-4.5-0.5-9.3-4.6-11.6
		l-22.6-12.3l-0.3-19.5l5.2,11c0.3,0.8,0.9,1.5,1.4,2.1l16.2,15.1c0.1,0.1,0.2,0.2,0.3,0.3c1.3,1.7,3.4,2.9,5.8,2.9
		c4,0,7.3-3.3,7.3-7.3c0-2.2-1-4.2-2.5-5.5c-0.2-0.3-0.4-0.5-0.6-0.7l-15.3-14.2l-9.9-21.2c-2.7-5.4-6.6-8.8-12.4-8.8H-234
		c-5.8,0-9.7,3.4-12.4,8.8l-9.6,21.1l-15.3,14.2c-0.2,0.2-0.4,0.5-0.6,0.7c-1.6,1.3-2.6,3.3-2.6,5.5
		C-274.5,240.8-271.2,244.1-267.2,244.1z"/>
	<rect x="-334.3" y="393.4" width="101.9" height="8.1"/>
	<rect x="-213.9" y="393.4" width="101.9" height="8.1"/>
	<rect x="-272.3" y="267.4" width="101.9" height="8.1"/>
</g>
</svg>
