<svg xmlns="http://www.w3.org/2000/svg" xmlns:xlink="http://www.w3.org/1999/xlink" viewBox="0 0 70.8 45.99"><defs><style>.cls-1{fill:#82c341;}.cls-2{fill:url(#linear-gradient);}.cls-3{fill:url(#linear-gradient-2);}.cls-4{fill:url(#linear-gradient-3);}</style><linearGradient id="linear-gradient" x1="63.1" y1="10.65" x2="47.83" y2="-0.05" gradientUnits="userSpaceOnUse"><stop offset="0.25" stop-color="#5ca446"/><stop offset="0.54" stop-color="#70b443" stop-opacity="0.47"/><stop offset="0.75" stop-color="#7dbf42" stop-opacity="0.13"/><stop offset="0.85" stop-color="#82c341" stop-opacity="0"/></linearGradient><linearGradient id="linear-gradient-2" x1="30.74" y1="27.23" x2="41.49" y2="-2.3" gradientUnits="userSpaceOnUse"><stop offset="0.15" stop-color="#5ca446"/><stop offset="0.24" stop-color="#60a845" stop-opacity="0.88"/><stop offset="0.43" stop-color="#6cb144" stop-opacity="0.58"/><stop offset="0.7" stop-color="#7ec042" stop-opacity="0.1"/><stop offset="0.75" stop-color="#82c341" stop-opacity="0"/></linearGradient><linearGradient id="linear-gradient-3" x1="15.13" y1="45.81" x2="28.9" y2="32.05" gradientUnits="userSpaceOnUse"><stop offset="0.2" stop-color="#82c341" stop-opacity="0"/><stop offset="0.29" stop-color="#7dbf42" stop-opacity="0.13"/><stop offset="0.49" stop-color="#70b443" stop-opacity="0.47"/><stop offset="0.75" stop-color="#5ca446"/></linearGradient></defs><g id="Layer_2" data-name="Layer 2"><g id="Layer_1-2" data-name="Layer 1"><path class="cls-1" d="M47.8,0A23,23,0,0,0,25.26,27.55a10.54,10.54,0,0,1,.28,1.14A23,23,0,1,0,47.8,0Zm0,41.05A18.06,18.06,0,1,1,65.86,23,18.06,18.06,0,0,1,47.8,41.05Z"/><path class="cls-2" d="M65.08,7.82,62.14,12A18.11,18.11,0,0,0,47.8,4.94V0A23,23,0,0,1,65.08,7.82Z"/><path class="cls-1" d="M70.79,23H65.85a18,18,0,0,0-3.53-10.74.23.23,0,0,0-.36,0L49.84,29.59a2.54,2.54,0,0,1-4,.17l-7.88-9.39a2.39,2.39,0,0,1-.59-1.58,2.48,2.48,0,0,1,4.38-1.6L47.4,24a.22.22,0,0,0,.35,0L58.56,8.5l1.25-1.78a2.54,2.54,0,0,1,3.83-.39c.5.47,1,1,1.44,1.49A22.9,22.9,0,0,1,70.79,23Z"/><path class="cls-3" d="M25.18,19a15.4,15.4,0,0,1,5,8h0a17.76,17.76,0,0,1-.46-4A18.06,18.06,0,0,1,47.8,4.94V0A23,23,0,0,0,25.18,19Z"/><path class="cls-1" d="M15.32,15.36A15.32,15.32,0,1,0,30.63,30.68,15.32,15.32,0,0,0,15.32,15.36Zm0,25.74A10.42,10.42,0,1,1,25.74,30.68,10.42,10.42,0,0,1,15.32,41.1Z"/><path class="cls-4" d="M25.54,28.69a10,10,0,0,1,.2,2A10.43,10.43,0,0,1,15.32,41.1V46a15.32,15.32,0,0,0,14.07-9.27A23,23,0,0,1,25.54,28.69Z"/></g></g></svg>
